<svg width="21" height="22" viewBox="0 0 21 22" fill="none" xmlns="http://www.w3.org/2000/svg">
<path fill-rule="evenodd" clip-rule="evenodd" d="M7.66364 9.93946C7.59845 9.9795 7.54177 10.032 7.49684 10.094C7.45191 10.1561 7.41961 10.2264 7.40178 10.3009C7.38395 10.3754 7.38095 10.4528 7.39295 10.5285C7.40495 10.6042 7.43171 10.6768 7.4717 10.7421C8.00622 11.616 8.46048 12.4834 8.76293 13.2715C8.81831 13.4159 8.92863 13.5323 9.06961 13.5952C9.21059 13.658 9.37069 13.6621 9.5147 13.6066C9.6587 13.551 9.7748 13.4404 9.83747 13.299C9.90013 13.1576 9.90423 12.997 9.84885 12.8526C9.51266 11.9753 9.01943 11.0414 8.46339 10.132C8.38277 10.0001 8.25323 9.90572 8.10326 9.86962C7.95328 9.83353 7.79515 9.85865 7.66364 9.93946V9.93946Z" fill="#DA8E33"/>
<path fill-rule="evenodd" clip-rule="evenodd" d="M13.7206 9.38283C13.845 9.47414 13.9282 9.61127 13.9519 9.76408C13.9755 9.91689 13.9377 10.0729 13.8468 10.1977C13.1738 11.1212 12.5811 12.3561 12.1641 13.2987C12.1331 13.3688 12.0886 13.432 12.0333 13.4847C11.9779 13.5375 11.9127 13.5789 11.8414 13.6064C11.7701 13.6339 11.6941 13.6471 11.6178 13.6451C11.5414 13.6432 11.4662 13.6262 11.3963 13.5951C11.3265 13.564 11.2635 13.5194 11.2109 13.4639C11.1582 13.4083 11.117 13.3429 11.0896 13.2714C11.0622 13.1999 11.049 13.1237 11.051 13.0471C11.0529 12.9705 11.0699 12.8951 11.1009 12.8251C11.522 11.8742 12.156 10.5407 12.908 9.50941C12.9991 9.3846 13.1358 9.30116 13.2882 9.27742C13.4405 9.25369 13.5961 9.2916 13.7206 9.38283V9.38283Z" fill="#DA8E33"/>
<path fill-rule="evenodd" clip-rule="evenodd" d="M12.354 4.33359C13.715 2.77143 21 0.812012 21 0.812012C21 0.812012 19.7617 8.62575 18.6723 9.87525C17.8609 10.8062 15.2755 10.2247 14.0087 9.86708C14.9556 8.4105 16.0532 6.98775 17.0181 5.85842C17.1165 5.74074 17.1647 5.58887 17.1522 5.43577C17.1397 5.28268 17.0674 5.14071 16.9512 5.04071C16.8349 4.9407 16.684 4.89072 16.5312 4.90162C16.3785 4.91252 16.2361 4.98342 16.1352 5.09892C15.1621 6.23759 14.0343 7.69475 13.0467 9.20967C12.4918 8.17367 11.2768 5.56851 12.354 4.33301V4.33359ZM2.90818 14.812H0V21.812H2.90818V20.6202C3.50145 20.5957 4.37739 20.5642 4.68043 20.5765C5.71981 20.6191 6.49513 20.8676 7.28034 21.119C8.01204 21.3529 8.7513 21.5897 9.71856 21.6638C9.96168 21.6825 10.1984 21.7064 10.4282 21.7292C11.2558 21.8132 11.9904 21.8878 12.5977 21.6638C13.3724 21.378 17.801 19.2039 18.3547 18.6317C18.9084 18.06 18.6316 16.5153 16.9151 16.8012C16.0683 16.9423 15.0871 17.3483 14.1966 17.7164C13.2828 18.0938 12.465 18.4322 11.9881 18.403C11.047 18.3458 8.55645 17.8885 8.55645 17.8885L11.4164 17.9235C11.4164 17.9235 11.8206 17.9445 12.3761 17.5449C12.9315 17.1453 13.4277 16.0002 12.5971 16.0002C11.7671 16.0002 10.8812 15.7144 10.8812 15.7144L7.33792 14.9135C7.33792 14.9135 6.11998 14.6848 5.6221 14.9135C5.21146 15.1019 3.50029 15.7167 2.90818 15.9285V14.812ZM1.67395 2.95284C1.67395 2.95284 7.68516 4.56984 8.80888 5.85842C9.67726 6.85417 8.74141 8.92792 8.27028 9.82042C7.6527 8.84799 6.98605 7.9078 6.27295 7.0035C6.22563 6.94337 6.16696 6.89317 6.1003 6.85578C6.03364 6.81838 5.96029 6.79452 5.88443 6.78555C5.80857 6.77659 5.7317 6.7827 5.65819 6.80353C5.58469 6.82436 5.516 6.85951 5.45604 6.90696C5.39608 6.95442 5.34603 7.01325 5.30874 7.08011C5.27145 7.14697 5.24766 7.22054 5.23872 7.29661C5.22978 7.37269 5.23587 7.44979 5.25664 7.52351C5.27741 7.59723 5.31246 7.66612 5.35978 7.72625C6.05292 8.60522 6.70056 9.51934 7.30012 10.465C6.21362 10.7602 4.23489 11.1667 3.59509 10.4323C2.69588 9.401 1.67395 2.95226 1.67395 2.95226V2.95284Z" fill="#DA8E33"/>
</svg>
