<svg width="41" height="40" viewBox="0 0 41 40" fill="none" xmlns="http://www.w3.org/2000/svg">
<path d="M33.8194 13.0413L33.8194 13.0414C35.542 14.0519 36.625 15.8715 36.625 17.8125C36.625 18.9428 36.2795 20.0323 35.651 20.946C35.7614 21.3864 35.817 21.8376 35.8242 22.2889L35.8243 22.2968H35.8242C35.8242 23.4272 35.4787 24.5167 34.8502 25.4303C34.9606 25.8703 35.0156 26.3212 35.0156 26.7773C35.0156 27.9077 34.6701 28.9971 34.0416 29.9108C34.152 30.3507 34.207 30.8016 34.207 31.2578C34.207 33.4733 32.8888 35.4702 30.8462 36.342C30.4567 36.5107 30.0376 36.5937 29.6133 36.5937H11.1641H10.6641V36.0937V19.375V18.875H10.7952L14.0492 7.09375C14.0492 7.09364 14.0493 7.09353 14.0493 7.09341C14.6482 4.91957 16.6421 3.40273 18.8975 3.40231C18.8978 3.40231 18.8981 3.40231 18.8984 3.40231V3.90231C19.4679 3.90019 20.0318 4.01488 20.5551 4.23929C21.0785 4.46369 21.5503 4.79305 21.9414 5.207L33.8194 13.0413ZM33.8194 13.0413C33.3364 12.758 32.7865 12.6089 32.2266 12.6093M33.8194 13.0413L32.2266 12.6093M32.2266 12.6093L32.2261 12.6093L23.3844 12.6093L23.5932 8.33294L23.5932 8.3321C23.6543 7.03613 23.1949 5.80191 22.3045 4.86324L33.5664 13.4726C33.1601 13.2343 32.6976 13.1089 32.2266 13.1093V12.6093ZM8.66406 36.5937H9.16406V36.0937V19.375V18.875H8.66406H6.125C5.15745 18.875 4.375 19.6574 4.375 20.625V34.8437C4.375 35.8113 5.15745 36.5937 6.125 36.5937H8.66406Z" stroke="#DA8E33"/>
</svg>
