<svg width="21" height="25" viewBox="0 0 21 25" fill="none" xmlns="http://www.w3.org/2000/svg">
<g clip-path="url(#clip0_1_2970)">
<path fill-rule="evenodd" clip-rule="evenodd" d="M3.93926 7.22801C3.37818 7.22801 2.92378 6.75401 3.01071 6.19401C3.55401 2.79201 6.11446 0.312012 10.5577 0.312012C15.0029 0.312012 18 3.03201 18 6.74201C18 9.43001 16.6862 11.318 14.4636 12.688C12.2904 14.006 11.67 14.924 11.67 16.708V16.768C11.67 17.0332 11.5659 17.2876 11.3807 17.4751C11.1954 17.6627 10.9442 17.768 10.6822 17.768H9.16092C8.90063 17.768 8.65086 17.664 8.46589 17.4787C8.28092 17.2933 8.17569 17.0415 8.17309 16.778L8.16716 16.378C8.08221 13.936 9.10955 12.376 11.4171 10.954C13.452 9.69001 14.1771 8.68401 14.1771 6.89801C14.1771 4.94001 12.6796 3.50201 10.372 3.50201C8.37856 3.50201 6.99363 4.56001 6.54318 6.30601C6.41278 6.81401 5.99394 7.22801 5.47632 7.22801H3.94124H3.93926ZM9.90772 24.312C11.1366 24.312 12.0711 23.364 12.0711 22.132C12.0711 20.896 11.1366 19.948 9.90772 19.948C8.71047 19.948 7.76018 20.896 7.76018 22.13C7.76018 23.364 8.71047 24.312 9.90772 24.312Z" fill="#DA8E33"/>
</g>
<defs>
<clipPath id="clip0_1_2970">
<rect width="21" height="24" fill="white" transform="translate(0 0.312012)"/>
</clipPath>
</defs>
</svg>
