<svg width="41" height="40" viewBox="0 0 41 40" fill="none" xmlns="http://www.w3.org/2000/svg">
<path d="M9.73327 13.6875L9.73333 13.6873C10.0024 12.9479 10.4926 12.3092 11.1372 11.8579C11.7818 11.4067 12.5497 11.1648 13.3365 11.165C13.3366 11.165 13.3366 11.165 13.3367 11.165H19.6044L22.7896 7.97978L23.1432 7.62623L23.4967 7.97978L32.5201 17.0031L32.8737 17.3568L32.52 17.7103L29.3348 20.8938V27.1615C29.3348 27.1616 29.3348 27.1616 29.3348 27.1617C29.3351 27.9485 29.0931 28.7163 28.6419 29.3609C28.1907 30.0056 27.552 30.4957 26.8125 30.7649L26.8124 30.7649L9.57693 37.0328L9.73327 13.6875ZM9.73327 13.6875L3.46673 30.9238L9.73327 13.6875ZM3.96963 33.1969L3.96898 33.1962C3.37596 32.6011 3.17843 31.7154 3.46661 30.9242L3.96963 33.1969ZM3.96963 33.1969L4.45796 33.6852L4.81151 34.0388M3.96963 33.1969L4.81151 34.0388M4.81151 34.0388L5.16507 33.6852M4.81151 34.0388L5.16507 33.6852M5.16507 33.6852L15.8684 22.9819L16.0229 22.8274M5.16507 33.6852L16.0229 22.8274M16.0229 22.8274L16.0145 22.6091M16.0229 22.8274L16.0145 22.6091M16.0145 22.6091C16.0133 22.5796 16.0107 22.5539 16.0083 22.535C16.0065 22.5198 16.0042 22.5042 16.0029 22.4955L16.0024 22.492L16.0016 22.4857C16.004 22.0945 16.1212 21.7126 16.3386 21.3872C16.5583 21.0583 16.8707 20.802 17.2361 20.6506C17.6016 20.4992 18.0037 20.4596 18.3917 20.5368C18.7797 20.6139 19.136 20.8044 19.4157 21.0841C19.6954 21.3638 19.8859 21.7202 19.9631 22.1082C20.0403 22.4961 20.0006 22.8982 19.8493 23.2637C19.6979 23.6292 19.4416 23.9415 19.1127 24.1613C18.7873 24.3787 18.4053 24.4958 18.0142 24.4983L18.0079 24.4974L18.0044 24.4969C17.9956 24.4956 17.9801 24.4934 17.9649 24.4915C17.9459 24.4892 17.9202 24.4865 17.8907 24.4854L17.6724 24.477M16.0145 22.6091L17.6724 24.477M17.6724 24.477L17.518 24.6315M17.6724 24.477L17.518 24.6315M17.518 24.6315L6.81463 35.3348L6.46107 35.6883M17.518 24.6315L6.46107 35.6883M6.46107 35.6883L6.81463 36.0419M6.46107 35.6883L6.81463 36.0419M6.81463 36.0419L7.30251 36.5298L6.81463 36.0419ZM8.36617 37.1138C7.96333 37.0247 7.59441 36.8222 7.30296 36.5302L8.36617 37.1138ZM8.36617 37.1138C8.7688 37.2029 9.1885 37.1749 9.57573 37.0332L8.36617 37.1138ZM33.3796 15.4552L33.7333 15.8089L34.0868 15.4551L37.6202 11.9201L37.9735 11.5666L37.6201 11.2131L29.2867 2.87978L28.9331 2.52615L28.5795 2.87987L25.0462 6.41487L24.6928 6.76842L25.0463 7.12189L33.3796 15.4552Z" stroke="#DA8E33"/>
</svg>
