<svg width="31" height="30" viewBox="0 0 31 30" fill="none" xmlns="http://www.w3.org/2000/svg">
<path d="M15.25 27.5C16.0241 27.501 16.7793 27.2607 17.4106 26.8127C18.0419 26.3647 18.5179 25.7311 18.7725 25H11.7275C11.9821 25.7311 12.4581 26.3647 13.0894 26.8127C13.7207 27.2607 14.4759 27.501 15.25 27.5ZM24 18.2325V12.5C24 8.47875 21.2687 5.09125 17.5687 4.0725C17.2025 3.15 16.3075 2.5 15.25 2.5C14.1925 2.5 13.2975 3.15 12.9313 4.0725C9.23125 5.0925 6.5 8.47875 6.5 12.5V18.2325L4.36625 20.3662C4.24995 20.4821 4.15771 20.6199 4.09486 20.7715C4.032 20.9232 3.99976 21.0858 4 21.25V22.5C4 22.8315 4.1317 23.1495 4.36612 23.3839C4.60054 23.6183 4.91848 23.75 5.25 23.75H25.25C25.5815 23.75 25.8995 23.6183 26.1339 23.3839C26.3683 23.1495 26.5 22.8315 26.5 22.5V21.25C26.5002 21.0858 26.468 20.9232 26.4051 20.7715C26.3423 20.6199 26.2501 20.4821 26.1338 20.3662L24 18.2325Z" fill="#DA8E33"/>
</svg>
