<svg width="41" height="40" viewBox="0 0 41 40" fill="none" xmlns="http://www.w3.org/2000/svg">
<path d="M36 3.33331V2.12621L35.1464 2.97976L27.2081 10.9181L20.8904 3.02097L20.5 2.53292L20.1096 3.02097L13.7919 10.9181L5.85355 2.97976L5 2.12621V3.33331V25V25.5H5.5H35.5H36V25V3.33331ZM36 28.3333V27.8333H35.5H5.5H5V28.3333V31.6666C5 32.6833 5.40387 33.6583 6.12276 34.3772C6.84165 35.0961 7.81667 35.5 8.83333 35.5H32.1667C33.1833 35.5 34.1584 35.0961 34.8772 34.3772C35.5961 33.6583 36 32.6833 36 31.6666V28.3333Z" stroke="#DA8E33"/>
</svg>
