<svg width="21" height="23" viewBox="0 0 21 23" fill="none" xmlns="http://www.w3.org/2000/svg">
<g clip-path="url(#clip0_1_3022)">
<path d="M10.5 12.9067H1.75C1.28587 12.9067 0.840752 12.7212 0.512563 12.3912C0.184374 12.0611 0 11.6135 0 11.1467V2.34667C0 1.87989 0.184374 1.43223 0.512563 1.10216C0.840752 0.772098 1.28587 0.58667 1.75 0.58667H10.5C10.9641 0.58667 11.4092 0.772098 11.7374 1.10216C12.0656 1.43223 12.25 1.87989 12.25 2.34667V11.1467C12.25 11.6135 12.0656 12.0611 11.7374 12.3912C11.4092 12.7212 10.9641 12.9067 10.5 12.9067ZM1.75 2.34667V11.1467H10.5V2.34667H1.75Z" fill="#DA8E33"/>
<path d="M19.25 7.6267V11.1467H15.75V7.6267H19.25ZM19.25 5.8667H15.75C15.2859 5.8667 14.8408 6.05213 14.5126 6.38219C14.1844 6.71226 14 7.15992 14 7.6267V11.1467C14 11.6135 14.1844 12.0611 14.5126 12.3912C14.8408 12.7213 15.2859 12.9067 15.75 12.9067H19.25C19.7141 12.9067 20.1592 12.7213 20.4874 12.3912C20.8156 12.0611 21 11.6135 21 11.1467V7.6267C21 7.15992 20.8156 6.71226 20.4874 6.38219C20.1592 6.05213 19.7141 5.8667 19.25 5.8667Z" fill="#DA8E33"/>
<path d="M19.25 16.4265V19.9465H15.75V16.4265H19.25ZM19.25 14.6665H15.75C15.2859 14.6665 14.8408 14.8519 14.5126 15.182C14.1844 15.5121 14 15.9597 14 16.4265V19.9465C14 20.4133 14.1844 20.8609 14.5126 21.191C14.8408 21.5211 15.2859 21.7065 15.75 21.7065H19.25C19.7141 21.7065 20.1592 21.5211 20.4874 21.191C20.8156 20.8609 21 20.4133 21 19.9465V16.4265C21 15.9597 20.8156 15.5121 20.4874 15.182C20.1592 14.8519 19.7141 14.6665 19.25 14.6665Z" fill="#DA8E33"/>
<path d="M10.5 16.4265V19.9465H7V16.4265H10.5ZM10.5 14.6665H7C6.53587 14.6665 6.09075 14.8519 5.76256 15.182C5.43437 15.5121 5.25 15.9597 5.25 16.4265V19.9465C5.25 20.4133 5.43437 20.8609 5.76256 21.191C6.09075 21.5211 6.53587 21.7065 7 21.7065H10.5C10.9641 21.7065 11.4092 21.5211 11.7374 21.191C12.0656 20.8609 12.25 20.4133 12.25 19.9465V16.4265C12.25 15.9597 12.0656 15.5121 11.7374 15.182C11.4092 14.8519 10.9641 14.6665 10.5 14.6665V14.6665Z" fill="#DA8E33"/>
</g>
<defs>
<clipPath id="clip0_1_3022">
<rect width="21" height="22" fill="white" transform="translate(0 0.312012)"/>
</clipPath>
</defs>
</svg>
