<svg width="22" height="20" viewBox="0 0 22 20" fill="none" xmlns="http://www.w3.org/2000/svg">
<path d="M19.9998 3.75H18.222V11.6667C18.222 12.1087 18.0347 12.5326 17.7013 12.8452C17.3679 13.1577 16.9157 13.3333 16.4442 13.3333H11.0935L7.98242 15.4167H11.422L16.6433 18.68C16.7102 18.7215 16.7879 18.7453 16.8681 18.7488C16.9482 18.7523 17.0279 18.7353 17.0986 18.6998C17.1694 18.6642 17.2285 18.6114 17.2698 18.5469C17.3111 18.4824 17.3329 18.4086 17.3331 18.3333V15.4167H19.9998C20.2355 15.4167 20.4616 15.3289 20.6283 15.1726C20.795 15.0163 20.8886 14.8043 20.8886 14.5833V4.58333C20.8886 4.36232 20.795 4.15036 20.6283 3.99408C20.4616 3.8378 20.2355 3.75 19.9998 3.75Z" fill="#DA8E33"/>
<path d="M16.4443 1.25H1.33322C1.09748 1.25 0.871384 1.3378 0.704685 1.49408C0.537986 1.65036 0.444336 1.86232 0.444336 2.08333V11.6667C0.444336 11.8877 0.537986 12.0996 0.704685 12.2559C0.871384 12.4122 1.09748 12.5 1.33322 12.5H3.99989V16.25C3.99988 16.3265 4.02237 16.4016 4.06488 16.467C4.1074 16.5323 4.16829 16.5854 4.24089 16.6205C4.31349 16.6555 4.39498 16.6711 4.47642 16.6656C4.55786 16.6601 4.6361 16.6336 4.70256 16.5892L10.8088 12.5H16.4443C16.6801 12.5 16.9062 12.4122 17.0729 12.2559C17.2396 12.0996 17.3332 11.8877 17.3332 11.6667V2.08333C17.3332 1.86232 17.2396 1.65036 17.0729 1.49408C16.9062 1.3378 16.6801 1.25 16.4443 1.25Z" fill="#DA8E33"/>
</svg>
