<svg width="22" height="20" viewBox="0 0 22 20" fill="none" xmlns="http://www.w3.org/2000/svg">
<path d="M12.6668 6.5625V0.625H3.00016C2.82335 0.625 2.65378 0.690848 2.52876 0.808058C2.40373 0.925268 2.3335 1.08424 2.3335 1.25V18.75C2.3335 18.9158 2.40373 19.0747 2.52876 19.1919C2.65378 19.3092 2.82335 19.375 3.00016 19.375H18.3335C18.5103 19.375 18.6799 19.3092 18.8049 19.1919C18.9299 19.0747 19.0002 18.9158 19.0002 18.75V6.5625H12.6668ZM6.3335 5.625H9.3335C9.4219 5.625 9.50669 5.65792 9.5692 5.71653C9.63171 5.77513 9.66683 5.85462 9.66683 5.9375C9.66683 6.02038 9.63171 6.09987 9.5692 6.15847C9.50669 6.21708 9.4219 6.25 9.3335 6.25H6.3335C6.24509 6.25 6.16031 6.21708 6.09779 6.15847C6.03528 6.09987 6.00016 6.02038 6.00016 5.9375C6.00016 5.85462 6.03528 5.77513 6.09779 5.71653C6.16031 5.65792 6.24509 5.625 6.3335 5.625ZM15.0002 15.625H6.3335C6.24509 15.625 6.16031 15.5921 6.09779 15.5335C6.03528 15.4749 6.00016 15.3954 6.00016 15.3125C6.00016 15.2296 6.03528 15.1501 6.09779 15.0915C6.16031 15.0329 6.24509 15 6.3335 15H15.0002C15.0886 15 15.1734 15.0329 15.2359 15.0915C15.2984 15.1501 15.3335 15.2296 15.3335 15.3125C15.3335 15.3954 15.2984 15.4749 15.2359 15.5335C15.1734 15.5921 15.0886 15.625 15.0002 15.625ZM15.0002 12.5H6.3335C6.24509 12.5 6.16031 12.4671 6.09779 12.4085C6.03528 12.3499 6.00016 12.2704 6.00016 12.1875C6.00016 12.1046 6.03528 12.0251 6.09779 11.9665C6.16031 11.9079 6.24509 11.875 6.3335 11.875H15.0002C15.0886 11.875 15.1734 11.9079 15.2359 11.9665C15.2984 12.0251 15.3335 12.1046 15.3335 12.1875C15.3335 12.2704 15.2984 12.3499 15.2359 12.4085C15.1734 12.4671 15.0886 12.5 15.0002 12.5ZM15.0002 9.375H6.3335C6.24509 9.375 6.16031 9.34208 6.09779 9.28347C6.03528 9.22487 6.00016 9.14538 6.00016 9.0625C6.00016 8.97962 6.03528 8.90013 6.09779 8.84153C6.16031 8.78292 6.24509 8.75 6.3335 8.75H15.0002C15.0886 8.75 15.1734 8.78292 15.2359 8.84153C15.2984 8.90013 15.3335 8.97962 15.3335 9.0625C15.3335 9.14538 15.2984 9.22487 15.2359 9.28347C15.1734 9.34208 15.0886 9.375 15.0002 9.375Z" fill="#DA8E33"/>
<path d="M13.3335 0.808105V5.93748H18.8048L13.3335 0.808105Z" fill="#DA8E33"/>
</svg>
