<svg width="22" height="20" viewBox="0 0 22 20" fill="none" xmlns="http://www.w3.org/2000/svg">
<path d="M18.0595 10.4709C17.8458 9.99595 16.6871 9.4397 16.1448 9.29189L15.5605 8.79189L15.4915 8.74626C14.9297 8.54637 14.3398 8.42415 13.7405 8.38345C13.4336 8.20229 13.1051 8.05546 12.7618 7.94595C12.3791 7.8547 11.5188 8.10032 11.1665 8.20939L11.0755 8.23751L11.0141 8.30689C10.6871 8.67782 9.61914 9.93595 9.61914 10.5656C9.61914 10.8841 9.94381 11.1703 10.3191 11.5031C10.4973 11.645 10.6586 11.8044 10.8001 11.9788C10.8175 12.1255 10.8443 12.271 10.8805 12.4147C10.9641 12.7897 11.1041 13.4209 10.9355 13.6666C10.7062 14.0537 10.5634 14.4806 10.5158 14.9211C10.4683 15.3617 10.5169 15.8067 10.6588 16.2291C10.7088 16.3898 10.8001 16.5366 10.9248 16.6565C11.0495 16.7763 11.2037 16.8657 11.3738 16.9166C11.4616 16.9384 11.552 16.9489 11.6428 16.9478C12.2791 16.9478 13.0405 16.4566 13.7225 16.0169C13.9701 15.843 14.2332 15.6895 14.5088 15.5578C15.1038 15.3391 15.3878 14.6203 15.5951 14.095C15.6374 13.9775 15.6876 13.8627 15.7455 13.7513C16.0681 13.363 16.4875 13.0549 16.9668 12.8541C17.6305 12.5441 18.3591 11.1388 18.0595 10.4709Z" fill="#DA8E33"/>
<path d="M10.6665 0.625C8.68869 0.625 6.7553 1.17483 5.11081 2.20497C3.46631 3.23511 2.18459 4.69929 1.42771 6.41234C0.670837 8.1254 0.472803 10.0104 0.858656 11.829C1.24451 13.6475 2.19692 15.318 3.59544 16.6291C4.99397 17.9402 6.77579 18.8331 8.7156 19.1949C10.6554 19.5566 12.6661 19.3709 14.4933 18.6614C16.3206 17.9518 17.8824 16.7502 18.9812 15.2085C20.08 13.6668 20.6665 11.8542 20.6665 10C20.6635 7.51446 19.609 5.13152 17.7343 3.37398C15.8595 1.61644 13.3178 0.627812 10.6665 0.625V0.625ZM10.6665 18.75C8.48871 18.7519 6.37944 18.0364 4.70717 16.7284L5.33017 15.8534C5.65496 15.7758 5.94346 15.6001 6.15117 15.3534C6.59517 14.6034 6.03684 13.5059 5.86784 13.2069C5.85168 12.9068 5.7957 12.6099 5.70117 12.3228C5.57317 12.0228 5.04684 11.7341 4.74917 11.5906C4.53317 11.2425 4.10617 10.4612 4.10617 10C4.10149 9.90181 4.11769 9.80373 4.15382 9.71147C4.18996 9.61921 4.24532 9.53461 4.31667 9.4626C4.38802 9.39059 4.47394 9.33261 4.56942 9.29204C4.66491 9.25146 4.76805 9.22909 4.87284 9.22625C5.41983 9.12427 5.90123 8.82279 6.21117 8.38812C6.52351 8.29875 7.20717 8.06562 7.44017 7.68344C7.68984 7.27312 7.41151 6.33062 7.24851 5.865C7.33326 5.49479 7.31976 5.11073 7.20917 4.74656C7.05154 4.3982 6.79772 4.09552 6.47384 3.86969C6.26493 3.42037 5.99066 3.00034 5.65884 2.62156C6.77523 1.95266 8.03154 1.51577 9.34317 1.34031C9.16894 1.60608 9.10778 1.92358 9.17184 2.22969C9.28584 2.52406 9.73451 2.74125 10.1122 2.87594C10.0645 3.22406 10.0605 3.79375 10.4575 4.09187C10.8545 4.39 11.3412 4.26 11.6648 4.17656L11.7885 4.14531C11.8461 4.56425 11.8645 4.98711 11.8435 5.40906L11.8392 5.53406L11.9295 5.62781C11.9652 5.66469 12.8172 6.53656 13.7095 6.65406C13.7553 6.66012 13.8016 6.66304 13.8478 6.66281C14.6565 6.66281 15.5925 5.8 15.9068 5.48563C16.6816 5.3153 17.4425 5.0937 18.1838 4.8225C19.2067 6.1253 19.8241 7.66857 19.9672 9.28067C20.1103 10.8928 19.7736 12.5105 18.9945 13.9539C18.2154 15.3973 17.0245 16.6098 15.5543 17.4565C14.084 18.3032 12.392 18.751 10.6665 18.75Z" fill="#DA8E33"/>
</svg>
