<svg width="31" height="30" viewBox="0 0 31 30" fill="none" xmlns="http://www.w3.org/2000/svg">
<g clip-path="url(#clip0_1_1697)">
<path fill-rule="evenodd" clip-rule="evenodd" d="M0.25 15.0838C0.25 22.5413 5.66625 28.7425 12.75 30V19.1663H9V15H12.75V11.6663C12.75 7.91625 15.1662 5.83375 18.5837 5.83375C19.6662 5.83375 20.8338 6 21.9163 6.16625V10H20C18.1663 10 17.75 10.9162 17.75 12.0837V15H21.75L21.0837 19.1663H17.75V30C24.8337 28.7425 30.25 22.5425 30.25 15.0838C30.25 6.7875 23.5 0 15.25 0C7 0 0.25 6.7875 0.25 15.0838Z" fill="#DA8E33"/>
</g>
<defs>
<clipPath id="clip0_1_1697">
<rect width="30" height="30" fill="white" transform="translate(0.25)"/>
</clipPath>
</defs>
</svg>
