<svg width="22" height="20" viewBox="0 0 22 20" fill="none" xmlns="http://www.w3.org/2000/svg">
<path d="M12.9945 19.1666C12.8215 19.1665 12.6519 19.1214 12.5047 19.0362C12.3574 18.951 12.2384 18.8291 12.1607 18.6841L9.39719 13.4999C9.32265 13.3598 9.28953 13.2035 9.30125 13.0472C9.31297 12.891 9.36912 12.7406 9.46386 12.6116L13.9261 6.94494L7.88164 11.1266C7.74422 11.2154 7.58391 11.2681 7.41741 11.2791C7.25091 11.2901 7.08431 11.259 6.93497 11.1891L1.40341 8.59827C1.24156 8.5218 1.10702 8.40273 1.01628 8.25565C0.925538 8.10856 0.882532 7.93985 0.892533 7.7702C0.902534 7.60054 0.965108 7.4373 1.07259 7.30049C1.18007 7.16368 1.32778 7.05923 1.49764 6.99994L19.191 0.886608C19.3579 0.828789 19.539 0.817036 19.7128 0.852742C19.8866 0.888448 20.0458 0.970116 20.1716 1.08807C20.2974 1.20602 20.3846 1.35532 20.4226 1.51826C20.4607 1.68121 20.4482 1.85097 20.3865 2.00744L13.8665 18.5958C13.8038 18.7556 13.6924 18.8946 13.5463 18.9958C13.4002 19.0969 13.2257 19.1557 13.0443 19.1649L12.9945 19.1666Z" fill="#DA8E33"/>
</svg>
