<svg width="21" height="22" viewBox="0 0 21 22" fill="none" xmlns="http://www.w3.org/2000/svg">
<path fill-rule="evenodd" clip-rule="evenodd" d="M11.0502 0.812012H9.8796V3.24451C9.57699 3.35149 9.30955 3.53901 9.10629 3.78673C8.90303 4.03446 8.77171 4.33293 8.72659 4.64976L4.45987 5.79018C4.32787 5.82573 4.21253 5.90622 4.13386 6.01768L0.707025 10.8558H1.43295e-06C-0.000355717 11.3254 0.0660513 11.7926 0.197242 12.2436C0.753262 14.1429 2.41957 15.5219 4.38963 15.5219C6.4352 15.5219 8.1536 14.0344 8.64114 12.0219C8.73308 11.6406 8.77945 11.2498 8.77926 10.8576V10.8558H8.23202L5.53972 6.70951L8.95895 5.79543C9.16932 6.14428 9.49475 6.40945 9.8796 6.5456V19.4787H8.12375V20.6453H4.61204V21.812H16.3177V20.6453H12.806V19.4787H11.0502V6.54618C11.3882 6.42695 11.6815 6.2075 11.8907 5.91731C12.1 5.62712 12.2151 5.28007 12.2207 4.92276L15.2291 4.11893L13.0829 7.22868H12.2207C12.2207 7.63118 12.2687 8.02201 12.3589 8.39534C12.8464 10.4078 14.5654 11.8953 16.6104 11.8953C18.5798 11.8953 20.2467 10.5163 20.8028 8.61643C20.9339 8.16605 21.0004 7.6994 21 7.23043V7.22868H19.861L17.1137 2.84784C17.0486 2.73826 16.9492 2.65293 16.8309 2.6049C16.7125 2.55687 16.5816 2.54877 16.4582 2.58185L11.8462 3.81501C11.6403 3.55373 11.3643 3.35609 11.0502 3.24509V0.812012V0.812012ZM14.5039 7.22868H18.4809L16.587 4.20876L14.5039 7.22868ZM6.83788 10.8558L4.59097 7.39493L2.1398 10.8558H6.83788Z" fill="#DA8E33"/>
</svg>
