<svg width="21" height="26" viewBox="0 0 21 26" fill="none" xmlns="http://www.w3.org/2000/svg">
<path d="M20.9998 1.24891C20.9997 1.10287 20.9659 0.958863 20.9011 0.828384C20.8362 0.697904 20.7422 0.584557 20.6264 0.497377C20.5106 0.410196 20.3763 0.351595 20.2342 0.326244C20.092 0.300893 19.946 0.309494 19.8078 0.351361L7.45482 4.10157C7.26393 4.15938 7.09655 4.27791 6.9775 4.43959C6.85845 4.60128 6.79407 4.79749 6.79394 4.99912V17.3461C5.99259 16.7815 5.02598 16.508 4.05147 16.5702C3.07697 16.6324 2.15196 17.0265 1.42703 17.6885C0.702107 18.3505 0.219962 19.2413 0.0590892 20.2159C-0.101783 21.1905 0.0680913 22.1916 0.541058 23.056C1.01402 23.9205 1.76223 24.5975 2.66386 24.9768C3.56549 25.3561 4.56746 25.4154 5.50663 25.145C6.4458 24.8746 7.26687 24.2905 7.83617 23.4877C8.40547 22.6849 8.68947 21.7107 8.64194 20.7238C8.64528 20.691 8.64693 20.658 8.64688 20.625V10.6969L19.1469 7.50927V14.8472C18.3455 14.2826 17.3789 14.0091 16.4044 14.0713C15.4299 14.1335 14.5049 14.5276 13.78 15.1896C13.055 15.8516 12.5729 16.7424 12.412 17.717C12.2512 18.6917 12.421 19.6927 12.894 20.5571C13.367 21.4216 14.1152 22.0986 15.0168 22.4779C15.9184 22.8572 16.9204 22.9165 17.8596 22.6461C18.7987 22.3757 19.6198 21.7916 20.1891 20.9888C20.7584 20.186 21.0424 19.2118 20.9949 18.2249C20.9982 18.1917 20.9999 18.1583 20.9998 18.1249V1.24891Z" fill="#DA8E33"/>
</svg>
