<svg width="21" height="22" viewBox="0 0 21 22" fill="none" xmlns="http://www.w3.org/2000/svg">
<path d="M21 7.81201C21 7.57139 20.8031 7.37451 20.5625 7.37451H14.875C14.6344 7.37451 14.4375 7.17764 14.4375 6.93701V1.24951C14.4375 1.00889 14.2406 0.812012 14 0.812012H7C6.75937 0.812012 6.5625 1.00889 6.5625 1.24951V6.93701C6.5625 7.17764 6.36563 7.37451 6.125 7.37451H0.4375C0.196875 7.37451 0 7.57139 0 7.81201V14.812C0 15.0526 0.196875 15.2495 0.4375 15.2495H6.125C6.36563 15.2495 6.5625 15.4464 6.5625 15.687V21.3745C6.5625 21.6151 6.75937 21.812 7 21.812H14C14.2406 21.812 14.4375 21.6151 14.4375 21.3745V15.687C14.4375 15.4464 14.6344 15.2495 14.875 15.2495H20.5625C20.8031 15.2495 21 15.0526 21 14.812V7.81201Z" fill="#DA8E33"/>
</svg>
