<svg width="21" height="21" viewBox="0 0 21 21" fill="none" xmlns="http://www.w3.org/2000/svg">
<path d="M1.99905 20.312C3.09852 20.312 3.9981 19.414 3.9981 18.3165V11.3322C3.9981 10.2347 3.09852 9.33671 1.99905 9.33671C0.899572 9.33671 0 10.2347 0 11.3322V18.3165C0 19.414 0.899572 20.312 1.99905 20.312ZM10.3651 14.7545L11.8344 15.2634C11.9443 15.3033 12.0543 15.3232 12.1642 15.3232H18.991C20.1004 15.3232 20.99 16.2112 21 17.3187L13.6135 20.0825C13.2137 20.2322 12.7739 20.2521 12.3641 20.1324L5.99714 18.3365V9.33671H7.59638C7.83627 9.33671 8.07615 9.37662 8.29605 9.46641L15.2228 12.0506C15.4824 12.1469 15.6998 12.3311 15.8372 12.5712C15.9745 12.8112 16.023 13.0918 15.9742 13.364C15.9254 13.6361 15.7824 13.8824 15.5701 14.06C15.3579 14.2376 15.0899 14.3351 14.8129 14.3355H12.1842C12.0643 14.3355 11.9443 14.3155 11.8244 14.2656L10.7049 13.8366C10.445 13.7368 10.1552 13.8765 10.0652 14.1359C9.97525 14.3853 10.1052 14.6647 10.3651 14.7545V14.7545ZM19.1509 4.24816L14.1533 0.68617C13.4536 0.187292 12.524 0.187292 11.8344 0.68617L6.83674 4.24816C6.307 4.6273 5.99714 5.22596 5.99714 5.8745V7.3412H7.60638C7.85626 7.3412 8.11614 7.39108 8.34603 7.48088L16.1323 10.5839C17.2518 11.0429 17.9914 12.1204 17.9914 13.3277H19.9905V5.8745C19.9905 5.22596 19.6806 4.6273 19.1509 4.24816ZM11.9943 8.33895C11.7144 8.33895 11.4945 8.11945 11.4945 7.84007C11.4945 7.5607 11.7144 7.3412 11.9943 7.3412C12.2742 7.3412 12.494 7.5607 12.494 7.84007C12.494 8.11945 12.2742 8.33895 11.9943 8.33895ZM11.9943 6.34344C11.7144 6.34344 11.4945 6.12393 11.4945 5.84456C11.4945 5.56519 11.7144 5.34569 11.9943 5.34569C12.2742 5.34569 12.494 5.56519 12.494 5.84456C12.494 6.12393 12.2742 6.34344 11.9943 6.34344ZM13.9933 8.33895C13.7135 8.33895 13.4936 8.11945 13.4936 7.84007C13.4936 7.5607 13.7135 7.3412 13.9933 7.3412C14.2732 7.3412 14.4931 7.5607 14.4931 7.84007C14.4931 8.11945 14.2732 8.33895 13.9933 8.33895ZM13.9933 6.34344C13.7135 6.34344 13.4936 6.12393 13.4936 5.84456C13.4936 5.56519 13.7135 5.34569 13.9933 5.34569C14.2732 5.34569 14.4931 5.56519 14.4931 5.84456C14.4931 6.12393 14.2732 6.34344 13.9933 6.34344Z" fill="#DA8E33"/>
</svg>
