<svg width="20" height="20" viewBox="0 0 20 20" fill="none" xmlns="http://www.w3.org/2000/svg">
<path d="M19 0C19.2652 0 19.5196 0.108058 19.7071 0.300403C19.8946 0.492748 20 0.753624 20 1.02564V15.3846C20 15.6566 19.8946 15.9175 19.7071 16.1099C19.5196 16.3022 19.2652 16.4103 19 16.4103H4.455L0 20V1.02564C0 0.753624 0.105357 0.492748 0.292893 0.300403C0.48043 0.108058 0.734784 0 1 0H19ZM15 4.10256H13V12.3077H15V4.10256ZM9 5.12821H7V7.17846L5 7.17949V9.23077L7 9.22974V11.2821H9V9.22974L11 9.23077V7.17949L9 7.17846V5.12821Z" fill="white"/>
</svg>
