<svg width="22" height="20" viewBox="0 0 22 20" fill="none" xmlns="http://www.w3.org/2000/svg">
<path d="M19.6276 13.2618C19.1399 12.9987 18.5673 12.9096 18.0151 13.011C17.463 13.1124 16.9685 13.3974 16.6227 13.8136C16.277 14.2297 16.1033 14.749 16.1337 15.2757C16.164 15.8024 16.3964 16.3011 16.7879 16.6799C15.2478 18.1288 13.1801 18.9779 10.9998 19.0568C8.8196 19.1357 6.68823 18.4385 5.03356 17.1053C4.87626 17.2574 4.70102 17.3924 4.51123 17.5074C6.30046 18.9862 8.62701 19.7646 11.0106 19.6818C13.3943 19.599 15.653 18.6613 17.3206 17.0624C17.8567 17.3297 18.4829 17.3904 19.0661 17.2318C19.6493 17.0732 20.1436 16.7076 20.4439 16.2128C20.7442 15.718 20.827 15.1329 20.6745 14.5819C20.5221 14.0308 20.1465 13.5571 19.6276 13.2615V13.2618Z" fill="white"/>
<path d="M12.9981 2.46347C12.9895 1.90997 12.7576 1.38007 12.3492 0.980326C11.9407 0.580585 11.3859 0.340661 10.7965 0.308808C10.207 0.276955 9.62649 0.455535 9.17175 0.808632C8.71701 1.16173 8.42174 1.66315 8.34533 2.21206C8.26893 2.76096 8.41705 3.31663 8.7599 3.76731C9.10276 4.21799 9.61492 4.53025 10.1934 4.64129C10.7718 4.75232 11.3737 4.6539 11.8779 4.36582C12.3821 4.07774 12.7513 3.62136 12.9111 3.08847C15.0209 3.61631 16.8398 4.87233 18.0032 6.60469C19.1666 8.33706 19.5884 10.4177 19.1841 12.4294C19.4036 12.4816 19.6161 12.5571 19.8174 12.6544C20.2862 10.4604 19.8406 8.18143 18.5722 6.28597C17.3039 4.3905 15.3091 3.0226 12.9981 2.46347V2.46347Z" fill="white"/>
<path d="M2.29613 13.0384C1.7303 11.0621 1.98142 8.95835 2.99925 7.1482C4.01707 5.33805 5.72651 3.95502 7.78546 3.27588C7.72348 3.07214 7.68635 2.86247 7.6748 2.65088C5.41392 3.36627 3.53165 4.86707 2.41549 6.8443C1.29933 8.82153 1.03424 11.1247 1.6748 13.2796C1.16795 13.5632 0.794424 14.0161 0.629341 14.5474C0.464259 15.0786 0.519867 15.6488 0.784981 16.1431C1.05009 16.6375 1.50505 17.0194 2.05834 17.2121C2.61163 17.4048 3.22221 17.3939 3.76729 17.1816C4.31236 16.9694 4.75149 16.5715 4.99635 16.068C5.24121 15.5645 5.27365 14.9928 5.08713 14.4678C4.90061 13.9429 4.50897 13.5036 3.99099 13.2383C3.473 12.9731 2.8671 12.9015 2.29513 13.0381L2.29613 13.0384Z" fill="white"/>
</svg>
