<svg width="23" height="24" viewBox="0 0 23 24" fill="none" xmlns="http://www.w3.org/2000/svg">
<path d="M11.5 22.812L13.8333 20.4787M16.75 20.4787C17.5235 20.4787 18.2654 20.1714 18.8124 19.6244C19.3594 19.0774 19.6667 18.3356 19.6667 17.562C19.6667 16.7885 19.3594 16.0466 18.8124 15.4996C18.2654 14.9526 17.5235 14.6453 16.75 14.6453C15.9765 14.6453 15.2346 14.9526 14.6876 15.4996C14.1406 16.0466 13.8333 16.7885 13.8333 17.562C13.8333 18.3356 14.1406 19.0774 14.6876 19.6244C15.2346 20.1714 15.9765 20.4787 16.75 20.4787V20.4787ZM9.16667 4.14534L11.5 1.81201L9.16667 4.14534ZM6.25 9.97868C7.02355 9.97868 7.76541 9.67139 8.31239 9.12441C8.85938 8.57743 9.16667 7.83556 9.16667 7.06201C9.16667 6.28846 8.85938 5.5466 8.31239 4.99962C7.76541 4.45264 7.02355 4.14534 6.25 4.14534C5.47645 4.14534 4.73459 4.45264 4.18761 4.99962C3.64062 5.5466 3.33333 6.28846 3.33333 7.06201C3.33333 7.83556 3.64062 8.57743 4.18761 9.12441C4.73459 9.67139 5.47645 9.97868 6.25 9.97868V9.97868ZM6.83333 16.9787L16.1667 7.64534L6.83333 16.9787ZM3.91667 22.812C4.69021 22.812 5.43208 22.5047 5.97906 21.9577C6.52604 21.4108 6.83333 20.6689 6.83333 19.8953C6.83333 19.1218 6.52604 18.3799 5.97906 17.8329C5.43208 17.286 4.69021 16.9787 3.91667 16.9787C3.14312 16.9787 2.40125 17.286 1.85427 17.8329C1.30729 18.3799 1 19.1218 1 19.8953C1 20.6689 1.30729 21.4108 1.85427 21.9577C2.40125 22.5047 3.14312 22.812 3.91667 22.812V22.812ZM19.0833 7.64534C19.8569 7.64534 20.5987 7.33805 21.1457 6.79107C21.6927 6.24409 22 5.50223 22 4.72868C22 3.95513 21.6927 3.21326 21.1457 2.66628C20.5987 2.1193 19.8569 1.81201 19.0833 1.81201C18.3098 1.81201 17.5679 2.1193 17.0209 2.66628C16.474 3.21326 16.1667 3.95513 16.1667 4.72868C16.1667 5.50223 16.474 6.24409 17.0209 6.79107C17.5679 7.33805 18.3098 7.64534 19.0833 7.64534Z" stroke="#DA8E33" stroke-width="2" stroke-linecap="round" stroke-linejoin="round"/>
</svg>
