<svg width="27" height="30" viewBox="0 0 27 30" fill="none" xmlns="http://www.w3.org/2000/svg">
<g clip-path="url(#clip0_1_1695)">
<path d="M7.50475 24.3726C7.50475 26.445 5.82475 28.125 3.75234 28.125C1.67994 28.125 0 26.445 0 24.3726C0 22.3002 1.68 20.6202 3.7524 20.6202C5.8248 20.6202 7.50475 22.3003 7.50475 24.3726V24.3726ZM17.7973 27.1412C17.3078 18.0826 10.0521 10.8177 0.983848 10.3277C0.448594 10.2988 0 10.7288 0 11.2648V14.0814C0 14.5745 0.380273 14.988 0.872285 15.0199C7.42494 15.4467 12.6773 20.6861 13.105 27.2527C13.1371 27.7447 13.5506 28.125 14.0436 28.125H16.8601C17.3962 28.125 17.8263 27.6764 17.7973 27.1412ZM26.2494 27.1581C25.7576 13.4577 14.7343 2.36985 0.966973 1.87561C0.437871 1.85662 0 2.28407 0 2.81346V5.62994C0 6.13532 0.400488 6.54664 0.905449 6.56739C12.1073 7.0267 21.0984 16.0195 21.5577 27.2196C21.5784 27.7246 21.9897 28.1251 22.4951 28.1251H25.3116C25.841 28.125 26.2684 27.6872 26.2494 27.1581V27.1581Z" fill="#DA8E33"/>
</g>
<defs>
<clipPath id="clip0_1_1695">
<rect width="26.25" height="30" fill="white"/>
</clipPath>
</defs>
</svg>
